<?xml version="1.0" standalone="no"?>
<!DOCTYPE svg PUBLIC "-//W3C//DTD SVG 20010904//EN"
 "http://www.w3.org/TR/2001/REC-SVG-20010904/DTD/svg10.dtd">
<svg version="1.0" xmlns="http://www.w3.org/2000/svg"
 width="500.000000pt" height="389.000000pt" viewBox="0 0 500.000000 389.000000"
 preserveAspectRatio="xMidYMid meet">

<g transform="translate(0.000000,389.000000) scale(0.100000,-0.100000)"
fill="#000000" stroke="none">
<path d="M3413 3768 c55 -71 57 -90 57 -484 l0 -363 -29 5 c-40 8 -419 -13
-565 -32 -886 -113 -1448 -481 -1617 -1056 -17 -57 -20 -81 -12 -89 19 -19 31
-1 57 84 174 570 758 934 1671 1042 72 9 221 18 333 22 l202 6 0 358 c0 328
-2 363 -19 409 -19 50 -60 107 -89 124 -8 5 -3 -7 11 -26z"/>
<path d="M2786 2294 c-79 -19 -191 -79 -227 -123 -46 -55 -108 -188 -124 -266
-53 -252 40 -593 245 -904 34 -52 64 -101 67 -108 4 -10 -24 -13 -140 -13 -87
0 -148 -4 -152 -10 -4 -7 54 -10 168 -10 l174 0 -71 108 c-210 319 -301 646
-251 900 19 94 80 225 130 281 42 47 148 101 235 122 30 7 102 13 160 14 118
2 128 4 85 15 -50 13 -236 9 -299 -6z"/>
<path d="M3411 2254 c62 -69 60 -44 57 -622 -3 -513 -4 -528 -24 -573 -12 -25
-38 -63 -59 -84 -40 -40 -126 -85 -161 -85 -12 0 -24 -7 -28 -15 -4 -12 3 -15
33 -15 69 0 132 29 192 89 92 92 89 71 89 676 l0 522 -37 53 c-21 29 -49 60
-63 68 l-25 16 26 -30z"/>
<path d="M2166 2194 c-126 -31 -292 -148 -352 -249 -61 -105 -84 -236 -65
-381 23 -170 126 -426 246 -608 25 -38 45 -71 45 -73 0 -8 -706 2 -725 11 -13
6 -17 6 -10 -1 28 -28 87 -33 427 -33 l349 0 -40 58 c-96 141 -182 330 -226
493 -82 306 -10 533 216 679 76 49 201 90 275 90 41 0 54 4 54 15 0 20 -111
19 -194 -1z"/>
<path d="M133 483 c57 -174 123 -353 125 -340 4 22 -110 357 -122 357 -4 0 -6
-8 -3 -17z"/>
<path d="M483 418 c4 -46 10 -149 13 -230 6 -134 6 -148 -9 -148 -10 0 -17 -7
-17 -15 0 -10 10 -15 30 -15 36 0 34 -14 20 220 -14 223 -20 270 -32 270 -8 0
-9 -26 -5 -82z"/>
<path d="M1380 295 c0 -176 2 -205 15 -205 13 0 15 29 15 205 0 176 -2 205
-15 205 -13 0 -15 -29 -15 -205z"/>
<path d="M1885 483 c16 -41 145 -427 145 -435 0 -4 -9 -8 -20 -8 -11 0 -20 -7
-20 -15 0 -11 11 -15 36 -15 23 0 34 4 32 13 -19 75 -163 477 -170 477 -6 0
-7 -8 -3 -17z"/>
<path d="M2736 485 c-4 -12 -11 -13 -31 -5 -76 29 -155 -4 -155 -63 0 -51 16
-65 24 -23 11 57 88 84 161 56 22 -8 27 -7 34 13 5 12 7 25 4 30 -7 12 -31 8
-37 -8z"/>
<path d="M3120 493 c0 -5 22 -69 49 -143 27 -74 52 -152 56 -173 7 -38 25 -61
25 -33 0 14 -81 258 -109 329 -10 26 -21 36 -21 20z"/>
<path d="M3465 473 c8 -43 25 -301 25 -370 0 -49 -3 -63 -15 -63 -8 0 -15 -7
-15 -15 0 -10 10 -15 30 -15 36 0 34 -25 15 260 -8 118 -15 218 -15 223 0 4
-7 7 -15 7 -10 0 -13 -8 -10 -27z"/>
<path d="M3850 490 c0 -6 -40 -10 -100 -10 l-100 0 0 -80 c0 -64 3 -80 15 -80
12 0 15 14 15 65 l0 65 100 0 100 0 0 25 c0 16 -6 25 -15 25 -8 0 -15 -4 -15
-10z"/>
<path d="M4490 270 c0 -223 -1 -230 -20 -230 -11 0 -20 -7 -20 -15 0 -10 11
-15 35 -15 l35 0 0 245 c0 211 -2 245 -15 245 -13 0 -15 -32 -15 -230z"/>
<path d="M4831 448 c20 -50 139 -397 139 -404 0 -2 -11 -4 -25 -4 -18 0 -23
-4 -19 -15 4 -9 19 -15 40 -15 l33 0 -83 242 c-45 133 -88 244 -95 246 -7 2
-3 -17 10 -50z"/>
<path d="M720 468 c-76 -51 -106 -196 -60 -295 25 -57 32 -54 13 5 -30 97 7
226 77 263 39 21 100 25 133 8 l22 -11 -22 22 c-33 35 -117 39 -163 8z"/>
<path d="M2170 405 c0 -101 18 -115 22 -17 l3 67 63 0 c62 0 63 0 42 17 -15
12 -40 18 -76 18 l-54 0 0 -85z"/>
<path d="M4015 483 c-13 -10 -8 -403 6 -403 5 0 9 76 9 184 0 158 2 185 16
190 27 10 107 6 149 -9 51 -18 55 -13 9 15 -26 17 -56 24 -108 27 -39 2 -75 0
-81 -4z"/>
<path d="M1820 455 c0 -8 -13 -57 -30 -108 -35 -109 -34 -107 -16 -107 18 0
73 164 68 203 -3 28 -22 39 -22 12z"/>
<path d="M4757 460 c-2 -8 -17 -55 -32 -105 -15 -49 -30 -96 -32 -103 -3 -6 2
-12 11 -12 31 0 87 173 69 212 -8 17 -12 19 -16 8z"/>
<path d="M77 313 c-9 -210 -17 -273 -33 -273 -8 0 -14 -7 -14 -15 0 -10 10
-15 29 -15 l29 0 8 147 c11 202 10 265 -2 286 -8 14 -12 -17 -17 -130z"/>
<path d="M418 450 c-4 -8 -21 -58 -39 -110 -62 -185 -110 -300 -126 -300 -25
0 -8 -25 19 -28 24 -3 28 5 92 184 51 141 66 197 64 228 -2 24 -6 35 -10 26z"/>
<path d="M2396 433 c8 -44 -11 -88 -49 -112 l-31 -20 29 -7 c23 -6 32 -2 52
20 27 32 32 101 8 132 -14 18 -14 17 -9 -13z"/>
<path d="M3066 318 c-10 -221 -17 -278 -32 -278 -8 0 -14 -7 -14 -15 0 -10 10
-15 29 -15 l29 0 9 173 c9 193 8 239 -5 263 -6 10 -11 -34 -16 -128z"/>
<path d="M3362 327 c-65 -199 -101 -287 -119 -287 -24 0 -9 -25 18 -28 23 -3
28 7 92 185 61 169 82 264 60 263 -5 -1 -27 -60 -51 -133z"/>
<path d="M1006 393 c16 -47 18 -153 2 -205 -35 -118 -173 -186 -293 -143 -46
16 -55 14 -23 -7 124 -80 283 -27 339 112 23 56 18 186 -9 238 -28 52 -34 54
-16 5z"/>
<path d="M4338 395 c14 -60 7 -188 -12 -225 -49 -93 -124 -130 -266 -130 -71
0 -90 -3 -90 -14 0 -19 91 -31 157 -22 122 17 188 60 226 146 29 64 29 170 0
230 -17 33 -20 37 -15 15z"/>
<path d="M2556 281 c15 -16 126 -62 119 -51 -6 10 -109 60 -123 60 -3 0 -2 -4
4 -9z"/>
<path d="M3840 280 c0 -6 -38 -10 -95 -10 l-95 0 0 -90 c0 -73 3 -90 15 -90
12 0 15 15 15 75 l0 75 95 0 c95 0 95 0 95 25 0 16 -6 25 -15 25 -8 0 -15 -4
-15 -10z"/>
<path d="M2170 175 c0 -117 18 -127 22 -12 l3 82 32 3 c18 2 49 -1 70 -7 l38
-10 -24 19 c-17 15 -38 20 -82 20 l-59 0 0 -95z"/>
<path d="M1250 220 c0 -6 -34 -10 -81 -10 -60 0 -80 -3 -77 -12 3 -9 33 -14
91 -16 l87 -3 0 26 c0 14 -4 25 -10 25 -5 0 -10 -4 -10 -10z"/>
<path d="M2416 195 c7 -57 -20 -104 -76 -132 -35 -18 -61 -23 -127 -23 -65 0
-83 -3 -83 -14 0 -9 17 -16 49 -21 101 -14 212 20 244 74 21 35 22 110 3 137
-13 17 -14 16 -10 -21z"/>
<path d="M2768 187 c9 -109 -93 -177 -223 -149 -55 12 -58 -5 -4 -24 54 -20
127 -17 177 7 72 35 103 133 59 193 -10 14 -12 10 -9 -27z"/>
<path d="M1737 183 c-2 -5 -14 -38 -26 -74 -15 -47 -28 -68 -41 -72 -32 -8
-23 -27 13 -27 32 0 33 2 58 78 l25 77 77 3 c42 2 77 7 77 12 0 12 -177 14
-183 3z"/>
<path d="M4651 119 c-16 -50 -29 -73 -42 -76 -34 -9 -23 -35 13 -31 30 3 34 7
53 68 11 36 24 71 28 78 5 8 34 12 83 12 43 0 74 4 74 10 0 6 -38 10 -93 10
l-93 0 -23 -71z"/>
<path d="M1590 50 c0 -6 -48 -10 -125 -10 -104 0 -125 -2 -125 -15 0 -13 22
-15 140 -15 l140 0 0 25 c0 16 -6 25 -15 25 -8 0 -15 -4 -15 -10z"/>
<path d="M3860 50 c0 -6 -48 -10 -125 -10 -104 0 -125 -2 -125 -15 0 -13 22
-15 140 -15 l140 0 0 25 c0 16 -6 25 -15 25 -8 0 -15 -4 -15 -10z"/>
</g>
</svg>
