<?xml version="1.0" encoding="utf-8"?>
<!-- Generator: Adobe Illustrator 25.3.1, SVG Export Plug-In . SVG Version: 6.00 Build 0)  -->
<svg version="1.1" id="Layer_1" xmlns="http://www.w3.org/2000/svg" xmlns:xlink="http://www.w3.org/1999/xlink" x="0px" y="0px"
	 viewBox="0 0 130 18" style="enable-background:new 0 0 130 18;" xml:space="preserve">
<style type="text/css">
	.st0{fill-rule:evenodd;clip-rule:evenodd;fill:#0D0D0D;}
	.st1{filter:url(#Adobe_OpacityMaskFilter);}
	.st2{fill-rule:evenodd;clip-rule:evenodd;fill:#FFFFFF;}
	.st3{mask:url(#mask-2_1_);fill-rule:evenodd;clip-rule:evenodd;fill:#0D0D0D;}
</style>
<g id="Page-1">
	<g id="PrimaryHeader-UnAuth-992Help" transform="translate(-31.000000, -39.000000)">
		<g id="nav" transform="translate(0.000000, 39.000000)">
			<g id="main" transform="translate(31.000000, 0.000000)">
				<g id="SF-Logo">
					<path id="Fill-1" class="st0" d="M20.4,16.5c-1.6,0-3.1-0.4-4.2-1.2c-0.9-0.7-1.5-1.5-1.5-2.4c0-1.2,0.9-2,1.5-2.4
						c1.1-0.8,2.6-1.2,4.2-1.2c1.6,0,3.1,0.4,4.2,1.2c0.6,0.4,1.5,1.2,1.5,2.4C26.1,14.9,23.5,16.5,20.4,16.5L20.4,16.5z M13.7,11.8
						c-0.3-0.8-0.9-1.6-1.8-2.2c0.6,0.1,1.2,0.2,1.8,0.2c0.6,0,1.2-0.1,1.8-0.2C14.6,10.2,14,10.9,13.7,11.8L13.7,11.8z M6.9,16.5
						c-1.6,0-3.1-0.4-4.2-1.2c-0.9-0.7-1.5-1.5-1.5-2.4c0-1.2,0.9-2,1.5-2.4c1.1-0.8,2.6-1.2,4.2-1.2c1.6,0,3.1,0.4,4.2,1.2
						c0.6,0.4,1.5,1.2,1.5,2.4C12.6,14.9,10,16.5,6.9,16.5L6.9,16.5z M8,4.9c0-1.2,0.9-2,1.5-2.4c1.1-0.8,2.6-1.2,4.2-1.2
						c1.6,0,3.1,0.4,4.2,1.2c0.6,0.4,1.5,1.2,1.5,2.4c0,2-2.7,3.6-5.7,3.6c-1.6,0-3.1-0.4-4.2-1.2C8.6,6.7,8,5.8,8,4.9L8,4.9z
						 M20.4,8.1c-0.6,0-1.2,0.1-1.8,0.2c1.3-0.9,2-2.1,2-3.4c0-2.6-3.1-4.8-7-4.8c-3.9,0-6.9,2.1-6.9,4.8c0,1.3,0.8,2.5,2,3.4
						C8.2,8.2,7.6,8.1,6.9,8.1C3.1,8.1,0,10.2,0,12.9c0,2.6,3.1,4.8,6.9,4.8c3.3,0,6-1.6,6.8-3.7c0.7,2.1,3.4,3.7,6.7,3.7
						c3.9,0,7-2.1,7-4.8C27.4,10.2,24.3,8.1,20.4,8.1L20.4,8.1z M24,10.9c-0.9-0.5-2.1-0.8-3.5-0.8c-1.4,0-2.6,0.3-3.5,0.8
						c-0.9,0.5-1.4,1.2-1.4,2c0,0.7,0.5,1.4,1.4,2c0.9,0.5,2.1,0.9,3.5,0.9c1.4,0,2.6-0.3,3.5-0.9c0.9-0.5,1.4-1.2,1.4-2
						C25.4,12.2,24.8,11.5,24,10.9L24,10.9z M10.4,10.9c-0.9-0.5-2.1-0.8-3.5-0.8c-1.4,0-2.6,0.3-3.5,0.8c-0.9,0.5-1.4,1.2-1.4,2
						c0,0.7,0.5,1.5,1.4,2c0.9,0.5,2.1,0.9,3.5,0.9c1.4,0,2.6-0.3,3.5-0.9c0.9-0.5,1.4-1.2,1.4-2C11.8,12.2,11.3,11.5,10.4,10.9
						L10.4,10.9z M10.2,6.9c0.9,0.5,2.1,0.9,3.5,0.9c1.4,0,2.6-0.3,3.5-0.9c0.9-0.5,1.4-1.2,1.4-2c0-0.7-0.5-1.4-1.4-2
						c-0.9-0.5-2.1-0.8-3.5-0.8c-1.4,0-2.6,0.3-3.5,0.8c-0.9,0.5-1.4,1.2-1.4,2C8.8,5.7,9.3,6.4,10.2,6.9L10.2,6.9z M41.4,1.8
						l-0.6,2.9l-0.1,0C40.5,4.4,40.3,4.3,40,4c-0.7-0.5-1.6-0.8-2.4-0.8c-0.7,0-1.2,0.2-1.6,0.6c-0.4,0.3-0.6,0.8-0.6,1.4
						c0,1,0.7,1.5,2,2.3l0.5,0.3c1.1,0.7,2.8,1.7,2.8,4.1c0,2.7-1.8,5.5-6.1,5.5c-1.1,0-2.1-0.2-3.1-0.5c-0.7-0.2-1-0.5-1.4-0.8
						l0-0.2l0.6-2.8l0.1,0c0.3,0.3,0.6,0.6,1.1,0.9c1,0.7,2,0.7,2.5,0.7c1.5,0,2.7-0.8,2.7-2.2c0-1.2-1-1.8-2-2.3l-0.7-0.4
						c-1.1-0.7-2.6-1.6-2.6-4c0-0.9,0.3-2.2,1.1-3.3c1.1-1.4,2.8-1.9,4.5-1.9c2.2,0,3.5,0.8,4.1,1.1L41.4,1.8z M48.6,7.3l-0.1,0.1
						l-1.9,0l-0.9,4.1c-0.1,0.5-0.4,1.8-0.4,2.2c0,0.4,0.1,0.6,0.4,0.8c0.2,0.2,0.5,0.2,0.7,0.2c0.5,0,0.7-0.1,1.1-0.3l0.1,0.1
						L47,16.8l-0.2,0.2c-0.7,0.1-1.1,0.2-1.8,0.2c-1.8,0-3.1-0.6-3.1-2.6c0-0.9,0.4-2.7,0.7-4l0.7-3.2l-1.5,0.1l-0.1-0.1L42.2,5
						l0.1-0.1h1.5l0.6-3l0.1-0.1c1.5-0.4,2-0.6,3.4-1L48,0.9l-0.5,1.9L47.1,5l2-0.1L49.1,5L48.6,7.3z M55.4,13.4c0,0-0.7,1-1.6,1.4
						c-1,0.4-1.7,0.1-1.9-0.3c-0.2-0.3-0.7-1.2,0.2-2.2c0.9-1,3.8-1.1,3.8-1.1L55.4,13.4z M58.2,5.5c-0.7-0.5-1.8-0.7-3.4-0.7
						c-0.8,0-1.5,0.1-2.3,0.2c-0.7,0.1-1.1,0.2-1.5,0.3L51,5.4l-0.5,2.5L50.6,8c0.3-0.1,0.8-0.3,1.4-0.5c0.6-0.2,1.2-0.3,1.8-0.3
						c0.8,0,1.4,0.1,1.8,0.3c0.4,0.2,0.7,0.7,0.7,1.2c0,0.1,0,0.2,0,0.3c0,0.1,0,0.2,0,0.2l0,0.1c0,0-0.3,0-0.5,0
						c-0.2,0-0.4,0-0.7,0.1c-0.4,0-0.9,0.1-1.3,0.2c-1,0.2-3.9,0.6-4.8,2.5c-0.9,1.5-0.7,3.6,0.1,4.5c0.3,0.3,0.8,0.7,1.4,0.8l0,0
						c0,0,0.1,0,0.1,0c2.5,0.4,4.3-1.7,4.3-1.7l-0.3,1.3l0.1,0.1l2.8-0.1l0.1-0.1l1.6-8c0-0.2,0.1-0.4,0.1-0.6c0-0.2,0-0.4,0-0.6
						C59.4,6.6,59,5.9,58.2,5.5L58.2,5.5z M125.3,7.6c0,0.7-0.2,1.5-0.3,2.2l-1.4,7l-0.1,0.1l-3.2,0.1l-0.1-0.1c0,0,1.6-7.8,1.6-8.2
						c0-0.4-0.2-1.3-1.2-1.3c-0.8,0-1.6,0.8-1.6,0.8l-1.7,8.6l-0.1,0.1l-1.4,0l-1.2,0l-0.6,0l0,0l0-0.1c0,0,0.2-1.2,0.6-2.7h0
						c0.5-2.3,1.1-5.3,1.1-5.5c0-0.4-0.2-1.3-1.2-1.3c-0.8,0-1.6,0.8-1.6,0.8l-1.7,8.6l-0.1,0.1l-0.5,0l-2.7,0.1l-0.1-0.1l2.4-12
						l0.1-0.1l3.2-0.3l0.1,0.1l-0.3,1.7c0,0,1.5-1.6,3.5-1.7c1.8,0,2.2,1.7,2.2,1.7s1.8-1.7,3.8-1.7C123.4,4.7,125.3,5.1,125.3,7.6
						L125.3,7.6z M108.9,4.6L108.2,8L108,8.1c-0.2,0-0.4-0.1-0.7-0.1c-0.9,0-2.2,0.3-3.3,1.6l0,0l-1.4,7.1l-0.1,0.1L99.4,17
						l-0.1-0.1l2.4-12l0.1-0.1l3-0.3l0.1,0.1l-0.3,1.7l0.1-0.1c0.6-0.6,1.2-0.9,1.8-1.3c0.6-0.3,1.2-0.5,1.9-0.5c0.1,0,0.1,0,0.2,0
						L108.9,4.6z M95.3,13.4c0,0-0.7,1-1.6,1.4c-1,0.4-1.7,0.1-1.9-0.3c-0.2-0.3-0.7-1.2,0.2-2.2c0.9-1,3.8-1.1,3.8-1.1L95.3,13.4z
						 M98.2,5.5c-0.7-0.5-1.8-0.7-3.4-0.7c-0.8,0-1.5,0.1-2.3,0.2c-0.7,0.1-1.1,0.2-1.5,0.3l-0.1,0.1l-0.5,2.5L90.6,8
						c0.3-0.1,0.8-0.3,1.4-0.5c0.6-0.2,1.2-0.3,1.8-0.3c0.8,0,1.4,0.1,1.8,0.3c0.4,0.2,0.7,0.7,0.7,1.2c0,0.1,0,0.2,0,0.3
						c0,0.1,0,0.2,0,0.2l0,0.1c0,0-0.3,0-0.5,0c-0.2,0-0.4,0-0.7,0.1c-0.4,0-0.9,0.1-1.3,0.2c-1,0.2-3.9,0.6-4.8,2.5
						c-0.9,1.5-0.8,3.6,0.1,4.5c0.3,0.3,0.8,0.7,1.4,0.8l0,0c0,0,0.1,0,0.1,0c2.5,0.4,4.3-1.7,4.3-1.7l-0.3,1.3l0.1,0.1l2.8-0.1
						l0.1-0.1l1.6-8c0-0.2,0.1-0.4,0.1-0.6c0-0.2,0-0.4,0-0.6C99.4,6.6,98.9,5.9,98.2,5.5L98.2,5.5z M91,3.5l-0.1,0.1l-5.1,0L85,7.7
						l4.4-0.1l0.1,0.1c-0.4,1.2-0.5,1.5-0.7,2.5l-0.1,0.1l-4.2,0l-0.6,2.8l-0.7,3.7l-0.1,0.1L79.5,17l0-0.1l0.6-3.2l1-4.4
						C81.7,5.9,82,4.8,82.6,1l0.1-0.1h5.3l3.4-0.1l0.1,0.1L91,3.5z M67.3,7.3l-0.1,0.1l-1.9,0l-0.9,4.1c-0.1,0.5-0.4,1.8-0.4,2.2
						c0,0.4,0.1,0.6,0.4,0.8c0.2,0.2,0.5,0.2,0.7,0.2c0.5,0,0.7-0.1,1.1-0.3l0.1,0.1l-0.5,2.3l-0.2,0.2c-0.7,0.1-1.2,0.2-1.8,0.2
						c-1.8,0-3.1-0.6-3.1-2.6c0-0.9,0.4-2.7,0.7-4l0.7-3.2l-1.5,0.1l-0.1-0.1L60.8,5l0.1-0.1h1.5l0.6-3l0.1-0.1c1.5-0.4,2-0.6,3.4-1
						l0.1,0.1l-0.5,1.9L65.7,5l2-0.1L67.7,5L67.3,7.3z M74.8,9.4L74.8,9.4l-2,0.1l-1.9,0l0-0.1l0,0c0-0.1,0.1-0.3,0.1-0.4
						c0.1-0.4,0.3-0.9,0.7-1.3c0.1-0.1,0.1-0.1,0.2-0.2c0.6-0.6,1.2-0.7,1.5-0.7c0.5,0,0.9,0.2,1.1,0.5c0,0.1,0.1,0.1,0.1,0.2
						c0.1,0.2,0.2,0.4,0.2,0.7c0,0.1,0,0.2,0,0.3C75,8.7,74.9,9.1,74.8,9.4L74.8,9.4z M76.2,5.3L76.2,5.3L76.2,5.3
						c-0.7-0.4-1.6-0.7-2.6-0.7c-2.2,0-3.7,1-4.7,2.5c-1,1.5-1.5,3.3-1.5,5c0,1.2,0.2,2.3,0.9,3.4c0.4,0.5,1.3,1.7,4.2,1.7
						c2,0,3-0.5,3.5-0.8l0.1-0.1c0.1-0.4,0.4-2.4,0.6-2.9l-0.1-0.1c-1,0.8-2.2,1.4-3.4,1.4c-0.9,0-1.5-0.2-1.9-0.6
						c-0.4-0.4-0.7-0.9-0.7-1.6c0-0.3,0-0.5,0-0.7l0-0.1l0.1,0c2,0,3-0.1,4.7-0.1c0.5,0,1.2,0,1.9,0l0.1-0.1
						c0.2-0.8,0.3-1.6,0.3-2.7C77.8,7.9,77.7,6.3,76.2,5.3L76.2,5.3z"/>
					<path id="Fill-4" class="st0" d="M127.8,6.2h0.2c0.3,0,0.5-0.1,0.5-0.3c0-0.2-0.2-0.3-0.4-0.3c-0.1,0-0.2,0-0.3,0V6.2z
						 M127.4,5.3c0.2,0,0.4,0,0.6,0c0.3,0,0.5,0,0.7,0.2c0.1,0.1,0.2,0.2,0.2,0.4c0,0.3-0.2,0.4-0.4,0.5v0c0.2,0.1,0.3,0.2,0.3,0.4
						c0.1,0.3,0.1,0.5,0.2,0.6h-0.4c0-0.1-0.1-0.2-0.2-0.5c-0.1-0.3-0.2-0.4-0.4-0.4h-0.2v0.8h-0.4V5.3z"/>
					<g id="Clip-7">
					</g>
					<defs>
						<filter id="Adobe_OpacityMaskFilter" filterUnits="userSpaceOnUse" x="126.1" y="4.4" width="3.9" height="3.8">
							<feColorMatrix  type="matrix" values="1 0 0 0 0  0 1 0 0 0  0 0 1 0 0  0 0 0 1 0"/>
						</filter>
					</defs>
					<mask maskUnits="userSpaceOnUse" x="126.1" y="4.4" width="3.9" height="3.8" id="mask-2_1_">
						<g class="st1">
							<polygon id="path-1_1_" class="st2" points="126.1,4.4 130,4.4 130,8.2 126.1,8.2 							"/>
						</g>
					</mask>
					<path id="Fill-6" class="st3" d="M128.1,7.8c-0.9,0-1.6-0.7-1.6-1.6c0-0.9,0.7-1.6,1.6-1.6c0.9,0,1.6,0.7,1.6,1.6
						C129.6,7.1,128.9,7.8,128.1,7.8 M128.1,4.4c-1.1,0-1.9,0.9-1.9,1.9s0.9,1.9,1.9,1.9c1.1,0,1.9-0.9,1.9-1.9S129.1,4.4,128.1,4.4
						"/>
				</g>
			</g>
		</g>
	</g>
</g>
</svg>
