<svg id="Layer_1" data-name="Layer 1" xmlns="http://www.w3.org/2000/svg" viewBox="0 0 224.7 183.39"><defs><style>.cls-1{fill:#fff;}</style></defs><path class="cls-1" d="M183.39,183.39H0V0H183.39ZM5.76,177.63H177.63V5.76H5.76Z"/><path class="cls-1" d="M149.67,54.4l-9.35,7.18a51.2,51.2,0,0,0-18.59-15.29,54.48,54.48,0,0,0-23.83-5.2,52.72,52.72,0,0,0-26.29,6.82,48.85,48.85,0,0,0-18.74,18.3,50.63,50.63,0,0,0-6.66,25.85q0,21.69,14.88,36.2t37.54,14.52q24.91,0,41.69-19.52l9.35,7.1a59.7,59.7,0,0,1-22.13,17.46A69.5,69.5,0,0,1,97.9,154q-31.12,0-49.11-20.73Q33.72,115.77,33.71,91q0-26,18.27-43.83T97.74,29.4a67.18,67.18,0,0,1,30,6.57A58.2,58.2,0,0,1,149.67,54.4Z"/><path class="cls-1" d="M155.88,22.61h-2.12A7.58,7.58,0,0,1,156,17.24a7,7,0,0,1,5.18-2.1A6.6,6.6,0,0,1,168,21.75a7.2,7.2,0,0,1-.9,3.52,24.7,24.7,0,0,1-3.49,4.46l-5.51,5.93h10.2v2.13h-15l8.44-9.12A28.63,28.63,0,0,0,165,24.59a5.57,5.57,0,0,0,.77-2.8,4.32,4.32,0,0,0-1.39-3.22,5,5,0,0,0-6.92.07A6,6,0,0,0,155.88,22.61Z"/><path class="cls-1" d="M206,169.92v2.14h-4.77v11.33h-2.31V172.06h-4.76v-2.14Zm18.68,0v13.47h-2.3v-11.1l-5.06,11.1h-1.53l-4.87-11.1v11.1h-2.3V169.92h3.78l4.16,9.34,4.41-9.34Z"/></svg>