<svg xmlns="http://www.w3.org/2000/svg" width="51" height="51" viewBox="0 0 51 51">
  <g id="Group_10630" data-name="Group 10630" transform="translate(-932 -388.5)">
    <g id="Ellipse_159" data-name="Ellipse 159" transform="translate(932 388.5)" fill="none" stroke="rgba(255,255,255,0.99)" stroke-width="1.5">
      <circle cx="25.5" cy="25.5" r="25.5" stroke="none"/>
      <circle cx="25.5" cy="25.5" r="24.75" fill="none"/>
    </g>
    <path id="California_icon" d="M4.566,1a.566.566,0,0,0-.537.745l.537,1.61V4.447l-.482.783a.566.566,0,0,0-.084.3v.99a.566.566,0,0,0,.074.281l1.057,1.85v1.484a.566.566,0,0,0,.119.347l1.306,1.676.1.581a.566.566,0,0,0,.233.369l.506.355v.564a.566.566,0,0,0,.051.234l.467,1.028a.566.566,0,0,0,.137.187l.735.66a.566.566,0,0,0,.15.1.566.566,0,0,0-.409.544v.5a.566.566,0,0,0,.244.465l.893.617.654,1.007a.566.566,0,0,0,.067.085l1.07,1.1.118.249a.566.566,0,0,0,.277.273l.071.032v1.05a.566.566,0,0,0,.2.434l.424.354a.566.566,0,0,0,.362.131h1.67l.306.2.638.735a.566.566,0,0,0,.428.194H16.8a.566.566,0,0,0,.566.566h.539l.415.425a.566.566,0,0,0,.112.088l.513.313.108.15a.566.566,0,0,0,.078.088l.346.316.534,1.624a.566.566,0,0,0,.627.382l5.5-.88h-.044a.566.566,0,0,0,.256-.062l.47-.239a.566.566,0,0,0,.293-.371l.071-.288a.566.566,0,0,0,.015-.134v-.283a.566.566,0,0,0-.566-.566v-.4l.225-.352a.566.566,0,0,0,.031-.555l-.219-.444.043-.148.692-.711a.566.566,0,0,0,.146-.524l-.065-.278a.566.566,0,0,0-.309-.383l-.1-.05-.439-.822v-.354a.566.566,0,0,0-.2-.435L13.618,9.221V1.566A.566.566,0,0,0,13.052,1Zm.786,1.132h7.135V9.486a.566.566,0,0,0,.2.435L25.5,20.572v.23a.566.566,0,0,0,.066.266l.593,1.113a.566.566,0,0,0,.078.112l-.436.449a.566.566,0,0,0-.138.239l-.141.5a.566.566,0,0,0,.036.406l.173.354-.143.223a.566.566,0,0,0-.09.3v.919a.566.566,0,0,0,.166.4l.1.1-4.832.772-.429-1.307a.566.566,0,0,0-.156-.241l-.412-.377-.141-.2a.566.566,0,0,0-.165-.154l-.551-.335-.533-.546a.566.566,0,0,0-.4-.17H17.89a.566.566,0,0,0-.233-.273l-.354-.212a.566.566,0,0,0-.291-.081h-.8l-.519-.6a.566.566,0,0,0-.116-.1l-.514-.339a.566.566,0,0,0-.312-.093H13.115l-.063-.053V20.731a.566.566,0,0,0-.331-.515l-.216-.1-.069-.147a.566.566,0,0,0-.1-.15l-1.1-1.13-.684-1.054a.566.566,0,0,0-.154-.158L9.843,17.1a.566.566,0,0,0,.094-.1l.179-.248a.566.566,0,0,0,.107-.332v-.5a.566.566,0,0,0-.1-.314L9.987,15.4a.566.566,0,0,0-.471-.252H9.379l-.485-.435L8.526,13.9v-.736a.566.566,0,0,0-.242-.464l-.552-.387-.083-.488a.566.566,0,0,0-.112-.254L6.263,9.936V8.5a.566.566,0,0,0-.074-.281L5.131,6.366v-.68L5.613,4.9a.566.566,0,0,0,.084-.3V3.263a.566.566,0,0,0-.029-.179ZM9.657,17.2h0l-.029.008Zm3.281,7a.3.3,0,0,0-.1.029c-.024.012-.759.3-.778.311a.276.276,0,0,0-.129.161.27.27,0,0,0,.055.256l.245.277a.293.293,0,0,0,.217.1.284.284,0,0,0,.072-.009l1.354-.3a.288.288,0,0,0,.161-.1l.087-.106a.269.269,0,0,0,.038-.28.285.285,0,0,0-.235-.167l-.373-.032-.508-.128A.3.3,0,0,0,12.938,24.2Zm3.3,1.129a.219.219,0,0,0-.1.027l-.109.057a.307.307,0,0,0-.138.347l.038.151a.3.3,0,0,0,.092.154l.392.328a.235.235,0,0,0,.125.051l.185.015h.02a.272.272,0,0,0,.253-.266l.015-.2a.321.321,0,0,0-.072-.233l-.16-.187a.25.25,0,0,0-.09-.069l-.351-.157A.23.23,0,0,0,16.237,25.328Zm.021,1.7a.273.273,0,0,0-.165.023l-.055.027a.276.276,0,0,0-.147.326l.073.256c.01.036.032.111.211.306a.283.283,0,0,0,.077.06l.193.1a.281.281,0,0,0,.127.031.272.272,0,0,0,.118-.028l.164-.077a.278.278,0,0,0,.066-.456l-.514-.491A.279.279,0,0,0,16.258,27.028Z" transform="translate(942.145 401.078)" fill="rgba(255,255,255,0.99)"/>
  </g>
</svg>
