<svg id="Layer_1" data-name="Layer 1" xmlns="http://www.w3.org/2000/svg" viewBox="0 0 500 500"><defs><style>.cls-1{fill:#fff;}</style></defs><path class="cls-1" d="M301.41,15c-32.71,0-61,10-80.79,29.67S190,93.24,190,128.67V175H130a10,10,0,0,0-10,10v80a10,10,0,0,0,10,10h60V465a10,10,0,0,0,10,10h80a10,10,0,0,0,10-10V275h70a10,10,0,0,0,9.92-8.75l10-80a10,10,0,0,0-8.67-11.17A10.49,10.49,0,0,0,370,175H290V135a19.84,19.84,0,0,1,20-20h60a10,10,0,0,0,10-10V28.46a10,10,0,0,0-8.69-9.91C362.47,17.38,330.57,15,301.41,15Zm0,20c24.37,0,47.94,2,58.59,3V95H310a40.16,40.16,0,0,0-40,40v50a10,10,0,0,0,10,10h78.67l-7.5,60H280a10,10,0,0,0-10,10V455H210V265a10,10,0,0,0-10-10H140V195h60a10,10,0,0,0,10-10V128.67c0-31.44,9.2-54.4,24.73-69.82S272.7,35,301.41,35Z"/></svg>