<svg xmlns="http://www.w3.org/2000/svg" width="51" height="51" viewBox="0 0 51 51">
  <g id="Group_10629" data-name="Group 10629" transform="translate(-932 -488.5)">
    <path id="IdahoOffice_icon" d="M10.136,1a.568.568,0,0,0-.568.568v9.656a.568.568,0,0,0,.014.129l.346,1.484a.568.568,0,0,0,.054.143l.374.683a.568.568,0,0,0,.361.278l.554.14-.6.763a.568.568,0,0,0-.091.168l-.414,1.211a.568.568,0,0,0-.03.183v.3l-.286.154a.568.568,0,0,0-.234.237l-.552,1.065A.568.568,0,0,0,9,18.426v.537a.568.568,0,0,0,.166.4l.213.213a.568.568,0,0,0,.189.124V27.7a.568.568,0,0,0,.568.568h7.992L26.08,27.7a.568.568,0,0,0,.528-.589l-.372-9.346a.568.568,0,0,0-.023-.139l-.2-.666a.568.568,0,0,0-.143-.241l-.213-.213a.568.568,0,0,0-.757-.042l-.355.284a.568.568,0,0,0-.213.444v.245l-.1.039h-1.6a.568.568,0,0,0-.067,0L21.5,17.6v-.13a.568.568,0,0,0-.279-.489l-1.195-.7-.8-1.769V13.5a.568.568,0,0,0-.568-.568h-.213a.568.568,0,0,0-.452.224l-.458.6.546-3.142a.568.568,0,0,0-.042-.334l-.149-.324a.568.568,0,0,0-.364-.312L16.5,9.356l-.506-.375-.815-1.444a.568.568,0,0,0-.495-.288h-.333l-.235-.235v-.9a.568.568,0,0,0-.06-.254l-.508-1.016V1.568A.568.568,0,0,0,12.976,1ZM10.7,2.136h1.7v2.84a.568.568,0,0,0,.06.254l.508,1.016v1a.568.568,0,0,0,.166.4l.568.568a.568.568,0,0,0,.4.166h.236l.712,1.26a.568.568,0,0,0,.156.176l.687.51a.568.568,0,0,0,.186.091l.829.231-.526,3.03a.568.568,0,0,0,0,.215l.088.417a.568.568,0,0,0,.193.318l.531.443a.568.568,0,0,0,.815-.092l.105-.139.009.02.922,2.047a.568.568,0,0,0,.23.256l1.071.629v.811a.568.568,0,0,0,.568.568h.213a.568.568,0,0,0,.426-.192l.242-.275.856-.1h1.671a.568.568,0,0,0,.2-.037l.568-.213.02-.008.327,8.251-7.383.527H10.7V19.6a.568.568,0,0,0-.029-.18L10.533,19a.568.568,0,0,0-.4-.369v-.062l.408-.787.429-.232a.568.568,0,0,0,.3-.5V16.5l.352-1.031.662-.842a.568.568,0,0,0,.122-.352v-.639a.568.568,0,0,0-.43-.551l-.743-.185-.216-.4L10.7,11.159Zm-.71,16.472h0ZM9.571,19.7a.568.568,0,0,0,.21.041h-.2Z" transform="translate(939.695 499.367)" fill="rgba(255,255,255,0.99)"/>
    <g id="Ellipse_160" data-name="Ellipse 160" transform="translate(932 488.5)" fill="none" stroke="rgba(255,255,255,0.99)" stroke-width="1.5">
      <circle cx="25.5" cy="25.5" r="25.5" stroke="none"/>
      <circle cx="25.5" cy="25.5" r="24.75" fill="none"/>
    </g>
  </g>
</svg>
