<svg id="Layer_1" data-name="Layer 1" xmlns="http://www.w3.org/2000/svg" viewBox="0 0 500 500"><defs><style>.cls-1{fill:#fff;}</style></defs><path class="cls-1" d="M160,30C88.55,30,30,88.55,30,160V340c0,71.45,58.55,130,130,130H340c71.45,0,130-58.55,130-130V160c0-71.45-58.55-130-130-130Zm0,20H340c60.55,0,110,49.45,110,110V340c0,60.55-49.45,110-110,110H160C99.45,450,50,400.55,50,340V160C50,99.45,99.45,50,160,50Zm210,60a20,20,0,1,0,20,20A20.06,20.06,0,0,0,370,110ZM250,140c-60.45,0-110,49.55-110,110s49.55,110,110,110,110-49.55,110-110S310.45,140,250,140Zm0,20a90,90,0,1,1-90,90A90.2,90.2,0,0,1,250,160Z"/></svg>