<svg id="Layer_1" data-name="Layer 1" xmlns="http://www.w3.org/2000/svg" viewBox="0 0 500 500"><defs><style>.cls-1{fill:#fff;}</style></defs><path class="cls-1" d="M80.08,35.06c-16.88,0-31.65,4.8-42.46,13.53A46,46,0,0,0,20.19,84.41c0,27.44,24.57,48.68,57.06,50a9.69,9.69,0,0,0,2.83.46c17.53,0,32.46-5.14,43.12-14.23A47.4,47.4,0,0,0,140,84.41c0-.18,0-.36,0-.54C138.4,56.26,113.82,35.06,80.08,35.06Zm0,19.76c26.09,0,39,12.81,40.06,29.85a26.77,26.77,0,0,1-9.75,20.9c-6.52,5.56-16.6,9.49-30.31,9.49-26,0-40.12-14.13-40.12-30.65C40,76.15,43.35,69.36,50,64S67,54.82,80.08,54.82Zm-50,100.12a10,10,0,0,0-10,10v290a10,10,0,0,0,10,10h100a10,10,0,0,0,10-10v-290a10,10,0,0,0-10-10Zm150,0a10,10,0,0,0-10,10v290a10,10,0,0,0,10,10h100a10,10,0,0,0,10-10v-165a35,35,0,0,1,70,0v165a10,10,0,0,0,10,10h100a10,10,0,0,0,10-10v-170c0-41.26-12.12-73.95-32.56-96.25S398.57,154.94,368,154.94c-39,0-62.66,14.26-77.87,26v-16a10,10,0,0,0-10-10Zm-140,20h80v270h-80Zm150,0h80v26.39A10,10,0,0,0,287.52,208s29.66-33.07,80.43-33.07c25.73,0,48.28,9.22,64.82,27.27s27.31,45.35,27.31,82.73v160h-80v-155a10.13,10.13,0,0,0-.84-4.1c-2.22-28.26-25.36-50.9-54.16-50.9a55.16,55.16,0,0,0-55,55v155h-80Z"/></svg>