<svg id="Layer_1" data-name="Layer 1" xmlns="http://www.w3.org/2000/svg" viewBox="0 0 500 500"><defs><style>.cls-1{fill:#fff;}</style></defs><path class="cls-1" d="M248.54,90c-66,0-128,5-161,12-22,5-41,20-45,43-4,24-8,60-8,105s4,80,9,105c4,22,23,38,45,43,35,7,95,12,161,12s126-5,161-12c22-5,41-20,45-43a756.26,756.26,0,0,0,10-106c0-45-5-81-10-106-4-22-23-38-45-43C375.49,95,314.51,90,248.54,90Zm0,20c72,0,130,6,158,11,15,4,27,14,29,27,6,32,10,66,10,101-1,43-6,78-10,103-3,19-23,25-29,27-36,7-96,12-156,12s-121-4-156-12c-15-4-27-14-29-27-8-28-11-65-11-102,0-46,4-80,8-101,3-19,24-25,29-27C124.51,115,185.53,110,248.54,110Zm-54,60V330l140-80Zm20,34,80,46-80,46Z"/></svg>